<?xml version="1.0" encoding="UTF-8"?>
<svg id="Ebene_1" data-name="Ebene 1" xmlns="http://www.w3.org/2000/svg" viewBox="0 0 388.00003 156.41664">
  <defs>
    <style>
      .cls-1 {
        fill: none;
      }

      .cls-2 {
        fill: #ff3600;
      }
    </style>
  </defs>
  <g>
    <rect class="cls-1" x="30.91757" y="18.91618" width="311.63811" height="152.86154"/>
    <path d="M45.99805,28.14355h-13.52051v-6.5h34.38623v6.5h-13.52051v38.87158h-7.34521V28.14355Z"/>
    <path d="M70.56836,44.3291c0-15.27539,7.73535-23.46582,19.56592-23.46582s19.56543,8.19043,19.56543,23.46582-7.73535,23.46631-19.56543,23.46631-19.56592-8.19043-19.56592-23.46631ZM101.83447,47.9043v-7.1499c0-8.25537-4.68018-13.32568-11.7002-13.32568-7.02051,0-11.70068,5.07031-11.70068,13.32568v7.1499c0,8.25537,4.68018,13.32568,11.70068,13.32568,7.02002,0,11.7002-5.07031,11.7002-13.32568Z"/>
    <path d="M118.86279,67.01514V21.64355h19.50049c8.32031,0,13.1958,5.39502,13.1958,13.65039s-4.87549,13.65039-13.1958,13.65039h-12.15527v18.0708h-7.34521ZM126.20801,42.50928h11.7002c3.70557,0,5.91553-2.01514,5.91553-5.65527v-3.12012c0-3.64014-2.20996-5.65527-5.91553-5.65527h-11.7002v14.43066Z"/>
    <path d="M36.50781,86.64355h8.71045l12.15527,23.07617h.39014l12.15527-23.07617h8.32031v45.37207h-7.02002v-34.71191h-.3252l-3.5752,7.3457-9.94531,18.13574-9.94531-18.13574-3.5752-7.3457h-.3252v34.71191h-7.02002v-45.37207Z"/>
    <path d="M89.41748,132.01562v-45.37207h29.05615v6.5h-21.71094v12.61133h19.6958v6.5h-19.6958v13.26074h21.71094v6.5h-29.05615Z"/>
    <path d="M137.45166,93.14355h-13.52051v-6.5h34.38623v6.5h-13.52051v38.87207h-7.34521v-38.87207Z"/>
    <path d="M172.81152,132.01562h-7.34521v-45.37207h19.56543c8.12549,0,13.13086,5.26514,13.13086,13.65039,0,6.43555-3.05518,10.9209-8.84033,12.61035l9.81494,19.11133h-8.18994l-9.10059-18.33105h-9.03516v18.33105ZM184.51172,107.50977c3.70557,0,5.91553-2.01562,5.91553-5.65527v-3.12061c0-3.64014-2.20996-5.65527-5.91553-5.65527h-11.7002v14.43115h11.7002Z"/>
    <path d="M206.09082,132.01562v-5.98047h6.17529v-33.41162h-6.17529v-5.97998h19.76074v5.97998h-6.24023v33.41162h6.24023v5.98047h-19.76074Z"/>
    <path d="M233.06494,109.3291c0-15.21045,7.21533-23.46582,19.0459-23.46582,7.86523,0,13.13037,3.51025,16.18555,10.27051l-6.17529,3.38037c-1.56006-4.29053-4.74512-7.08545-10.01025-7.08545-6.95557,0-11.24561,5.07031-11.24561,13.45605v6.88965c0,8.38574,4.29004,13.45605,11.24561,13.45605,5.39502,0,8.83984-3.12012,10.46533-7.54102l5.91504,3.5752c-3.05518,6.56543-8.51514,10.53125-16.38037,10.53125-11.83057,0-19.0459-8.25586-19.0459-23.4668Z"/>
  </g>
  <g>
    <rect class="cls-1" x="270.18319" y="83.8855" width="136.74447" height="78.61271"/>
    <path class="cls-2" d="M274.86328,128.34473v-.97559c0-2.53516,1.56006-4.41992,4.74512-4.41992s4.74512,1.88477,4.74512,4.41992v.97559c0,2.53516-1.56006,4.41992-4.74512,4.41992s-4.74512-1.88477-4.74512-4.41992Z"/>
    <path class="cls-2" d="M324.06885,131.98438l-4.09521-12.28516h-16.96533l-3.96533,12.28516h-7.4751l15.4707-45.37158h9.22998l15.4707,45.37158h-7.67041ZM311.65332,93.37305h-.32471l-6.56543,20.02051h13.39062l-6.50049-20.02051Z"/>
    <path class="cls-2" d="M336.80713,131.98438v-5.98047h6.17529v-33.41113h-6.17529v-5.97998h19.76074v5.97998h-6.24023v33.41113h6.24023v5.98047h-19.76074Z"/>
  </g>
  <path class="cls-2" d="M152.67009,65.7897l26.6613-43.72981c.33713-.55296,1.14001-.55296,1.47715,0l26.6613,43.72981c.35144.57643-.06346,1.31531-.73857,1.31531h-53.32261c-.67511,0-1.09001-.73888-.73857-1.31531Z"/>
</svg>